<?xml version="1.0" standalone="no"?>
<!DOCTYPE svg PUBLIC "-//W3C//DTD SVG 20010904//EN"
 "http://www.w3.org/TR/2001/REC-SVG-20010904/DTD/svg10.dtd">
<svg version="1.0" xmlns="http://www.w3.org/2000/svg"
 width="512.000000pt" height="512.000000pt" viewBox="0 0 512.000000 512.000000"
 preserveAspectRatio="xMidYMid meet">
<metadata>
Created by potrace 1.14, written by Peter Selinger 2001-2017
</metadata>
<g transform="translate(0.000000,512.000000) scale(0.100000,-0.100000)"
fill="#000000" stroke="none">
<path d="M1088 4595 c-2 -2 -25 -6 -53 -10 -148 -19 -355 -126 -453 -234 -142
-156 -206 -293 -231 -491 -9 -73 -6 -2565 3 -2610 17 -83 39 -158 66 -217 112
-246 344 -435 604 -490 98 -20 227 -23 300 -6 62 14 204 57 241 73 11 5 76 32
145 60 191 79 584 269 807 390 l43 23 47 -25 c27 -14 131 -68 233 -120 375
-191 633 -304 855 -374 127 -40 245 -51 344 -32 26 5 59 11 75 14 49 8 178 62
245 101 81 48 199 158 257 239 59 83 109 194 136 301 l22 88 0 1300 c0 1351 1
1332 -40 1455 -29 85 -95 207 -139 257 -134 151 -267 236 -445 286 -74 20 -91
20 -1567 22 -821 1 -1494 1 -1495 0z m2972 -594 c58 -31 97 -71 123 -129 21
-46 21 -61 23 -539 l1 -491 -51 19 c-289 113 -889 440 -1068 581 -25 19 -38
25 -39 16 0 -7 -2 -29 -4 -48 -1 -19 -5 -98 -9 -175 -7 -166 -14 -249 -27
-330 -6 -33 -12 -71 -14 -85 -2 -14 -16 -63 -30 -110 -14 -47 -27 -92 -29
-100 -10 -40 -74 -188 -131 -306 -74 -152 -227 -402 -246 -404 -5 0 -122 173
-145 215 -122 223 -179 351 -236 520 -67 202 -76 262 -93 595 -10 177 -14 232
-18 236 -2 2 -15 -5 -28 -17 -59 -52 -267 -181 -489 -303 -207 -115 -590 -296
-624 -296 -18 0 -15 962 3 1005 33 80 100 143 172 163 20 5 646 9 1474 8
l1440 -1 45 -24z m-2335 -1494 c27 -119 282 -687 425 -947 l36 -66 -97 -67
c-53 -37 -101 -67 -105 -67 -4 0 -15 -6 -23 -14 -26 -22 -179 -99 -276 -138
-210 -85 -355 -119 -481 -114 -105 5 -182 47 -240 131 -47 68 -48 83 -49 582
l-1 472 84 26 c160 50 382 155 592 279 l95 57 18 -58 c10 -32 20 -66 22 -76z
m1906 20 c188 -106 403 -201 535 -236 l41 -11 -1 -472 c-1 -367 -5 -482 -15
-513 -22 -66 -84 -138 -146 -170 -141 -71 -420 -17 -748 146 -111 55 -338 196
-352 219 -3 6 23 67 60 136 178 342 357 755 411 951 l17 63 41 -24 c23 -13 93
-53 157 -89z"/>
</g>
</svg>
