<svg width="44" height="44" viewBox="0 0 44 44" fill="none" xmlns="http://www.w3.org/2000/svg">
<path d="M2.3418 22C2.3418 21.1979 2.62826 20.5176 3.20117 19.959L16.457 6.70312C16.7578 6.41667 17.0729 6.20182 17.4023 6.05859C17.7461 5.90104 18.0898 5.82227 18.4336 5.82227C19.25 5.82227 19.9089 6.07292 20.4102 6.57422C20.9258 7.07552 21.1836 7.70573 21.1836 8.46484C21.1836 8.88021 21.0977 9.2526 20.9258 9.58203C20.7682 9.91146 20.5677 10.1979 20.3242 10.4414L15.7695 15.0391L8.85156 21.377L7.71289 19.6582L15.4258 19.25H38.7793C39.6387 19.25 40.3333 19.5078 40.8633 20.0234C41.3932 20.5247 41.6582 21.1836 41.6582 22C41.6582 22.8307 41.3932 23.5039 40.8633 24.0195C40.3333 24.5352 39.6387 24.793 38.7793 24.793H15.4258L7.71289 24.3633L8.85156 22.6445L15.7695 28.9824L20.3242 33.5586C20.5677 33.8021 20.7682 34.0957 20.9258 34.4395C21.0977 34.7689 21.1836 35.1413 21.1836 35.5566C21.1836 36.3014 20.9258 36.9245 20.4102 37.4258C19.9089 37.9271 19.25 38.1777 18.4336 38.1777C17.7174 38.1777 17.0658 37.8913 16.4785 37.3184L3.20117 24.0625C2.62826 23.5039 2.3418 22.8164 2.3418 22Z" fill="#E7E7E7"/>
</svg>
