<svg width="44" height="44" viewBox="0 0 44 44" fill="none" xmlns="http://www.w3.org/2000/svg">
<path d="M41.6582 22C41.6582 22.8021 41.3717 23.4824 40.7988 24.041L27.543 37.2969C27.2422 37.5833 26.9271 37.7982 26.5977 37.9414C26.2539 38.099 25.9102 38.1777 25.5664 38.1777C24.75 38.1777 24.0911 37.9271 23.5898 37.4258C23.0742 36.9245 22.8164 36.2943 22.8164 35.5352C22.8164 35.1198 22.9023 34.7474 23.0742 34.418C23.2318 34.0885 23.4323 33.8021 23.6758 33.5586L28.2305 28.9609L35.1484 22.623L36.2871 24.3418L28.5742 24.75L5.2207 24.75C4.36133 24.75 3.66667 24.4922 3.13672 23.9766C2.60677 23.4753 2.3418 22.8164 2.3418 22C2.3418 21.1693 2.60677 20.4961 3.13672 19.9805C3.66667 19.4648 4.36133 19.207 5.2207 19.207L28.5742 19.207L36.2871 19.6367L35.1484 21.3555L28.2305 15.0176L23.6758 10.4414C23.4323 10.1979 23.2318 9.9043 23.0742 9.56055C22.9023 9.23112 22.8164 8.85872 22.8164 8.44336C22.8164 7.69857 23.0742 7.07552 23.5898 6.57422C24.0911 6.07292 24.75 5.82226 25.5664 5.82226C26.2826 5.82226 26.9342 6.10872 27.5215 6.68164L40.7988 19.9375C41.3717 20.4961 41.6582 21.1836 41.6582 22Z" fill="#E7E7E7"/>
</svg>
