<svg width="25" height="24" viewBox="0 0 25 24" fill="none" xmlns="http://www.w3.org/2000/svg">
<path d="M11.2629 22.3338C10.9292 22.3338 10.6189 22.2645 10.3318 22.1258C10.0524 21.9949 9.75368 21.7831 9.43555 21.4904L0.671241 13.3681C0.453976 13.1679 0.294907 12.9407 0.194034 12.6865C0.0931611 12.4323 0.0427246 12.1935 0.0427246 11.9701C0.0427246 11.7391 0.0931611 11.5003 0.194034 11.2538C0.294907 11.0073 0.453976 10.7801 0.671241 10.5721L9.43555 2.50769C9.78472 2.18419 10.0912 1.95312 10.355 1.81447C10.6266 1.67583 10.9254 1.60651 11.2513 1.60651C11.7479 1.60651 12.1591 1.77981 12.485 2.12642C12.8187 2.46533 12.9855 2.87741 12.9855 3.36266V7.00207H13.2066C15.0146 7.00207 16.5936 7.28321 17.9438 7.84548C19.3017 8.40006 20.4307 9.21267 21.3308 10.2833C22.2386 11.3539 22.9176 12.6557 23.3677 14.1884C23.8177 15.7212 24.0427 17.4581 24.0427 19.3991C24.0427 20.3311 23.8953 21.0359 23.6004 21.5135C23.3056 21.991 22.9098 22.2298 22.4132 22.2298C22.0641 22.2298 21.742 22.1451 21.4472 21.9756C21.1523 21.8139 20.8807 21.5058 20.6324 21.0513C20.1281 20.1347 19.5384 19.376 18.8633 18.7753C18.1882 18.1745 17.389 17.7316 16.4656 17.4466C15.5422 17.1539 14.4559 17.0075 13.2066 17.0075H12.9855V20.6238C12.9855 21.1091 12.8225 21.5135 12.4967 21.837C12.1708 22.1682 11.7595 22.3338 11.2629 22.3338Z" fill="#999999"/>
</svg>
