<svg width="24" height="24" viewBox="0 0 24 24" fill="none" xmlns="http://www.w3.org/2000/svg">
<path d="M12 24C10.3581 24 8.81288 23.6861 7.36418 23.0583C5.91549 22.4386 4.63984 21.5775 3.53722 20.4748C2.43461 19.3722 1.56942 18.0966 0.94165 16.6479C0.313883 15.1992 0 13.6499 0 12C0 10.3581 0.309859 8.81288 0.929577 7.36418C1.55734 5.91549 2.42254 4.63984 3.52515 3.53722C4.63581 2.43461 5.91549 1.56942 7.36418 0.94165C8.81288 0.313883 10.3541 0 11.9879 0C13.6378 0 15.1871 0.313883 16.6358 0.94165C18.0845 1.56942 19.3602 2.43461 20.4628 3.53722C21.5734 4.63984 22.4386 5.91549 23.0583 7.36418C23.6861 8.81288 24 10.3581 24 12C24 13.6499 23.6861 15.1992 23.0583 16.6479C22.4386 18.0966 21.5775 19.3722 20.4748 20.4748C19.3722 21.5775 18.0966 22.4386 16.6479 23.0583C15.1992 23.6861 13.6499 24 12 24ZM8.8008 7.15895C8.21328 7.15895 7.64588 7.28773 7.09859 7.54527C6.55131 7.79477 6.15292 8.13682 5.90342 8.57143C5.85513 8.65191 5.82294 8.72837 5.80684 8.8008C5.79879 8.86519 5.79477 8.96177 5.79477 9.09054V16.2978C5.79477 16.6761 5.98793 16.8652 6.37425 16.8652C6.47887 16.8652 6.57143 16.8491 6.65191 16.8169C6.73239 16.7847 6.82897 16.7364 6.94165 16.672C7.56137 16.1972 8.28169 15.9598 9.10262 15.9598C9.45674 15.9598 9.80684 16.0201 10.1529 16.1408C10.507 16.2535 10.833 16.4306 11.1308 16.672C11.1952 16.7364 11.2636 16.7686 11.336 16.7686C11.505 16.7686 11.5895 16.6881 11.5895 16.5272V8.7163C11.5895 8.60362 11.5493 8.48692 11.4688 8.3662C11.2193 7.99598 10.8531 7.70221 10.3702 7.48491C9.88732 7.26761 9.36418 7.15895 8.8008 7.15895ZM15.2113 7.15895C14.6479 7.15895 14.1247 7.26761 13.6419 7.48491C13.159 7.70221 12.7928 7.99598 12.5433 8.3662C12.4628 8.48692 12.4225 8.60362 12.4225 8.7163V16.5272C12.4225 16.6881 12.507 16.7686 12.6761 16.7686C12.7485 16.7686 12.8169 16.7364 12.8813 16.672C13.1791 16.4306 13.501 16.2535 13.8471 16.1408C14.2012 16.0201 14.5594 15.9598 14.9215 15.9598C15.7344 15.9598 16.4507 16.1972 17.0704 16.672C17.1831 16.7364 17.2757 16.7847 17.3481 16.8169C17.4286 16.8491 17.5252 16.8652 17.6378 16.8652C18.0241 16.8652 18.2173 16.6761 18.2173 16.2978V9.09054C18.2173 8.96177 18.2093 8.86117 18.1932 8.78873C18.1851 8.7163 18.1569 8.64386 18.1087 8.57143C17.8592 8.13682 17.4608 7.79477 16.9135 7.54527C16.3662 7.28773 15.7988 7.15895 15.2113 7.15895Z" fill="#999999"/>
</svg>
